<svg width="200" height="150" viewBox="0 0 200 150" xmlns="http://www.w3.org/2000/svg">
  <!-- Stitch's head -->
  <ellipse cx="100" cy="80" rx="45" ry="40" fill="#4ebcff" stroke="#2972b6" stroke-width="3"/>
  
  <!-- Stitch's ears -->
  <ellipse cx="70" cy="50" rx="15" ry="25" fill="#4ebcff" stroke="#2972b6" stroke-width="2" transform="rotate(-30 70 50)"/>
  <ellipse cx="130" cy="50" rx="15" ry="25" fill="#4ebcff" stroke="#2972b6" stroke-width="2" transform="rotate(30 130 50)"/>
  
  <!-- Inner ears -->
  <ellipse cx="70" cy="50" rx="8" ry="15" fill="#945cb4" transform="rotate(-30 70 50)"/>
  <ellipse cx="130" cy="50" rx="8" ry="15" fill="#945cb4" transform="rotate(30 130 50)"/>
  
  <!-- Stitch's snout -->
  <ellipse cx="100" cy="90" rx="20" ry="15" fill="#87ceeb"/>
  
  <!-- Stitch's nose -->
  <ellipse cx="100" cy="85" rx="4" ry="3" fill="#2972b6"/>
  
  <!-- Stitch's eyes -->
  <ellipse cx="85" cy="70" rx="12" ry="15" fill="white"/>
  <ellipse cx="115" cy="70" rx="12" ry="15" fill="white"/>
  
  <!-- Eye pupils -->
  <ellipse cx="88" cy="72" rx="8" ry="10" fill="black"/>
  <ellipse cx="112" cy="72" rx="8" ry="10" fill="black"/>
  
  <!-- Eye highlights -->
  <ellipse cx="90" cy="68" rx="3" ry="4" fill="white"/>
  <ellipse cx="110" cy="68" rx="3" ry="4" fill="white"/>
  
  <!-- Stitch's mouth -->
  <path d="M 90 95 Q 100 105 110 95" stroke="#2972b6" stroke-width="2" fill="none"/>
  
  <!-- Stitch's paws/hands peeking over -->
  <ellipse cx="60" cy="130" rx="12" ry="8" fill="#4ebcff" stroke="#2972b6" stroke-width="2"/>
  <ellipse cx="140" cy="130" rx="12" ry="8" fill="#4ebcff" stroke="#2972b6" stroke-width="2"/>
  
  <!-- Paw details -->
  <circle cx="57" cy="128" r="2" fill="#2972b6"/>
  <circle cx="63" cy="128" r="2" fill="#2972b6"/>
  <circle cx="137" cy="128" r="2" fill="#2972b6"/>
  <circle cx="143" cy="128" r="2" fill="#2972b6"/>
  
  <!-- Scruff's doll (small green character) -->
  <ellipse cx="45" cy="100" rx="12" ry="15" fill="#98fb98" stroke="#228b22" stroke-width="2"/>
  
  <!-- Scruff's features -->
  <circle cx="42" cy="95" r="2" fill="black"/>
  <circle cx="48" cy="95" r="2" fill="black"/>
  <ellipse cx="45" cy="100" rx="3" ry="2" fill="#228b22"/>
  
  <!-- Pink bow on Scruff -->
  <path d="M 35 85 L 40 80 L 50 80 L 55 85 L 50 90 L 40 90 Z" fill="#ffb6c1" stroke="#ff69b4" stroke-width="1"/>
  <circle cx="45" cy="85" r="3" fill="#ff69b4"/>
</svg>
